<?xml version="1.0" encoding="UTF-8"?>
<svg id="Capa_2" data-name="Capa 2" xmlns="http://www.w3.org/2000/svg" viewBox="0 0 681.17 694.27">
  <defs>
    <style>
      .cls-1 {
        fill: none;
        stroke: #f1f3f0;
        stroke-width: 2px;
      }
    </style>
  </defs>
  <g id="Capa_1-2" data-name="Capa 1">
    <path class="cls-1" d="M681,179.09c-8.12,1.43-16.47,2.18-25,2.18-78.98,0-143-64.02-143-143,0-13.16,1.78-25.9,5.1-38"/>
    <path class="cls-1" d="M681,262.9c-8.21.9-16.55,1.37-25,1.37-124.82,0-226-101.18-226-226,0-12.95,1.09-25.65,3.18-38"/>
    <path class="cls-1" d="M681,345.27c-8.25.66-16.58,1-25,1-170.1,0-308-137.9-308-308,0-12.87.79-25.55,2.32-38"/>
    <path class="cls-1" d="M681,441.5c-8.27.5-16.6.76-25,.76-223.12,0-404-180.88-404-404,0-12.81.6-25.49,1.76-38"/>
    <path class="cls-1" d="M681,553.67c-8.28.4-16.62.59-25,.59-284.98,0-516-231.02-516-516,0-12.78.46-25.45,1.38-38"/>
    <path class="cls-1" d="M681,692.8c-8.29.31-16.63.47-25,.47C294.25,693.27,1,400.01,1,38.27,1,25.51,1.36,12.84,2.08.27"/>
  </g>
</svg>