<?xml version="1.0" encoding="UTF-8"?>
<svg id="Capa_2" data-name="Capa 2" xmlns="http://www.w3.org/2000/svg" viewBox="0 0 58.66 58.66">
  <defs>
    <style>
      .cls-1 {
        fill: #0488df;
      }

      .cls-1, .cls-2 {
        stroke-width: 0px;
      }

      .cls-2 {
        fill: #fff;
      }
    </style>
  </defs>
  <g id="Objects">
    <circle class="cls-1" cx="29.33" cy="29.33" r="29.33"/>
    <g>
      <path class="cls-2" d="M30.19,15.47c-.02-.32-.02-.64-.02-.97h-14.48c-3.16,0-5.71,2.56-5.71,5.71v12.98c0,3.16,2.56,5.71,5.71,5.71h3.75v4.24c0,.8.9,1.28,1.57.82l7.36-5.06h14.62c3.16,0,5.71-2.56,5.71-5.71v-.17c-.32,0-.65,0-.97-.02-9.46-.49-17.05-8.07-17.54-17.54ZM20.81,26.71c0,1.37-1.11,2.49-2.49,2.49s-2.49-1.11-2.49-2.49,1.11-2.49,2.49-2.49,2.49,1.11,2.49,2.49ZM24.99,26.71c0-1.37,1.12-2.49,2.49-2.49s2.49,1.11,2.49,2.49-1.11,2.49-2.49,2.49-2.49-1.11-2.49-2.49Z"/>
      <path class="cls-2" d="M39.99,27.41c2.48,1.68,5.48,2.66,8.7,2.66v-3.62c-1.65,0-3.22-.33-4.65-.94-2.14-.9-3.97-2.42-5.25-4.33-1.29-1.91-2.04-4.19-2.04-6.67h-3.62c0,2.14.44,4.19,1.22,6.06,1.18,2.79,3.15,5.17,5.64,6.84Z"/>
      <path class="cls-2" d="M43.65,21.98c1.44.97,3.18,1.54,5.04,1.54v-3.31c0-.11,0-.21,0-.32-.75,0-1.45-.15-2.09-.42-.97-.41-1.79-1.09-2.38-1.96-.58-.86-.92-1.89-.92-3.01-.11,0-.21,0-.32,0h-3.31c0,1.24.25,2.43.71,3.51.69,1.62,1.83,2.99,3.27,3.97Z"/>
    </g>
  </g>
</svg>