<svg width="77" height="77" viewBox="0 0 77 77" fill="none" xmlns="http://www.w3.org/2000/svg">
<circle cx="38.5" cy="38.5" r="38.5" fill="#0488DF"/>
<g clip-path="url(#clip0_88_613)">
<path opacity="0.3" fill-rule="evenodd" clip-rule="evenodd" d="M32 23.25V24.125C32 25.5747 33.1753 26.75 34.625 26.75H43.375C44.8247 26.75 46 25.5747 46 24.125V23.25H49.5C51.433 23.25 53 24.817 53 26.75V54.75C53 56.683 51.433 58.25 49.5 58.25H28.5C26.567 58.25 25 56.683 25 54.75V26.75C25 24.817 26.567 23.25 28.5 23.25H32Z" fill="white"/>
<path fill-rule="evenodd" clip-rule="evenodd" d="M37.25 21.5C37.25 20.5335 38.0335 19.75 39 19.75C39.9665 19.75 40.75 20.5335 40.75 21.5H43.375C43.8582 21.5 44.25 21.8918 44.25 22.375V24.125C44.25 24.6082 43.8582 25 43.375 25H34.625C34.1418 25 33.75 24.6082 33.75 24.125V22.375C33.75 21.8918 34.1418 21.5 34.625 21.5H37.25Z" fill="white"/>
<path d="M46 33.75H37.25C36.2835 33.75 35.5 34.5335 35.5 35.5C35.5 36.4665 36.2835 37.25 37.25 37.25H46C46.9665 37.25 47.75 36.4665 47.75 35.5C47.75 34.5335 46.9665 33.75 46 33.75Z" fill="white"/>
<path d="M33.75 35.5C33.75 34.5335 32.9665 33.75 32 33.75C31.0335 33.75 30.25 34.5335 30.25 35.5C30.25 36.4665 31.0335 37.25 32 37.25C32.9665 37.25 33.75 36.4665 33.75 35.5Z" fill="white"/>
<path d="M33.75 42.5C33.75 41.5335 32.9665 40.75 32 40.75C31.0335 40.75 30.25 41.5335 30.25 42.5C30.25 43.4665 31.0335 44.25 32 44.25C32.9665 44.25 33.75 43.4665 33.75 42.5Z" fill="white"/>
<path d="M46 40.75H37.25C36.2835 40.75 35.5 41.5335 35.5 42.5C35.5 43.4665 36.2835 44.25 37.25 44.25H46C46.9665 44.25 47.75 43.4665 47.75 42.5C47.75 41.5335 46.9665 40.75 46 40.75Z" fill="white"/>
<path d="M33.75 49.5C33.75 48.5335 32.9665 47.75 32 47.75C31.0335 47.75 30.25 48.5335 30.25 49.5C30.25 50.4665 31.0335 51.25 32 51.25C32.9665 51.25 33.75 50.4665 33.75 49.5Z" fill="white"/>
<path d="M46 47.75H37.25C36.2835 47.75 35.5 48.5335 35.5 49.5C35.5 50.4665 36.2835 51.25 37.25 51.25H46C46.9665 51.25 47.75 50.4665 47.75 49.5C47.75 48.5335 46.9665 47.75 46 47.75Z" fill="white"/>
</g>
<defs>
<clipPath id="clip0_88_613">
<rect width="42" height="42" fill="white" transform="translate(18 18)"/>
</clipPath>
</defs>
</svg>
