<svg width="77" height="77" viewBox="0 0 77 77" fill="none" xmlns="http://www.w3.org/2000/svg">
<circle cx="38.5" cy="38.5" r="38.5" fill="#0488DF"/>
<g clip-path="url(#clip0_88_612)">
<path d="M52 25H22.25C21.2835 25 20.5 25.7835 20.5 26.75V30.25C20.5 31.2165 21.2835 32 22.25 32H52C52.9665 32 53.75 31.2165 53.75 30.25V26.75C53.75 25.7835 52.9665 25 52 25Z" fill="white"/>
<path opacity="0.3" fill-rule="evenodd" clip-rule="evenodd" d="M22.25 35.5H27.5C28.4665 35.5 29.25 36.2835 29.25 37.25V51.25C29.25 52.2165 28.4665 53 27.5 53H22.25C21.2835 53 20.5 52.2165 20.5 51.25V37.25C20.5 36.2835 21.2835 35.5 22.25 35.5ZM34.5 35.5H39.75C40.7165 35.5 41.5 36.2835 41.5 37.25V51.25C41.5 52.2165 40.7165 53 39.75 53H34.5C33.5335 53 32.75 52.2165 32.75 51.25V37.25C32.75 36.2835 33.5335 35.5 34.5 35.5ZM46.75 35.5H52C52.9665 35.5 53.75 36.2835 53.75 37.25V51.25C53.75 52.2165 52.9665 53 52 53H46.75C45.7835 53 45 52.2165 45 51.25V37.25C45 36.2835 45.7835 35.5 46.75 35.5Z" fill="white"/>
</g>
<defs>
<clipPath id="clip0_88_612">
<rect width="42" height="42" fill="white" transform="translate(17 18)"/>
</clipPath>
</defs>
</svg>
