<svg width="77" height="77" viewBox="0 0 77 77" fill="none" xmlns="http://www.w3.org/2000/svg">
<circle cx="38.5" cy="38.5" r="38.5" fill="#0488DF"/>
<g clip-path="url(#clip0_87_610)">
<path d="M52.8333 26.8541C52.8333 25.3699 51.6301 24.1666 50.1458 24.1666C48.6615 24.1666 47.4583 25.3699 47.4583 26.8541V44.7708C47.4583 46.2551 48.6615 47.4583 50.1458 47.4583C51.6301 47.4583 52.8333 46.2551 52.8333 44.7708V26.8541Z" fill="white"/>
<path d="M43.875 35.8125C43.875 34.3282 42.6718 33.125 41.1875 33.125C39.7032 33.125 38.5 34.3282 38.5 35.8125V44.7708C38.5 46.2551 39.7032 47.4583 41.1875 47.4583C42.6718 47.4583 43.875 46.2551 43.875 44.7708V35.8125Z" fill="white"/>
<path d="M25.9583 51.0417H52.8333C53.8228 51.0417 54.625 51.8438 54.625 52.8333C54.625 53.8228 53.8228 54.625 52.8333 54.625H24.1667C23.1772 54.625 22.375 53.8228 22.375 52.8333V24.1667C22.375 23.1772 23.1772 22.375 24.1667 22.375C25.1562 22.375 25.9583 23.1772 25.9583 24.1667V51.0417Z" fill="white"/>
<path d="M34.9167 39.3959C34.9167 37.9116 33.7135 36.7084 32.2292 36.7084C30.7449 36.7084 29.5417 37.9116 29.5417 39.3959V44.7709C29.5417 46.2551 30.7449 47.4584 32.2292 47.4584C33.7135 47.4584 34.9167 46.2551 34.9167 44.7709V39.3959Z" fill="white"/>
</g>
<defs>
<clipPath id="clip0_87_610">
<rect width="43" height="43" fill="white" transform="translate(17 17)"/>
</clipPath>
</defs>
</svg>
