<svg width="52" height="51" viewBox="0 0 52 51" fill="none" xmlns="http://www.w3.org/2000/svg">
<g clip-path="url(#clip0_1_72)">
<path fill-rule="evenodd" clip-rule="evenodd" d="M21.6184 29.9006L37.3309 18.7526L19.8202 26.786L15.9204 20.0313C15.8659 19.9369 15.832 19.832 15.821 19.7235C15.7782 19.3001 16.0868 18.9222 16.5102 18.8794L39.7802 16.5271C39.9675 16.5082 40.1553 16.5585 40.3081 16.6686C40.6534 16.9173 40.7316 17.3989 40.4829 17.7442L26.8107 36.7205C26.747 36.8089 26.6652 36.8828 26.5708 36.9373C26.2022 37.1501 25.731 37.0238 25.5182 36.6553L21.6184 29.9006Z" fill="black"/>
<path opacity="0.3" fill-rule="evenodd" clip-rule="evenodd" d="M18.4631 36.7637L19.7976 35.9932C20.5347 35.5677 21.4772 35.8202 21.9028 36.5573C22.3283 37.2943 22.0758 38.2368 21.3387 38.6624L20.0041 39.4329C19.267 39.8584 18.3246 39.6059 17.899 38.8688C17.4735 38.1318 17.726 37.1893 18.4631 36.7637ZM10.6067 32.4024L15.945 29.3203C16.6821 28.8948 17.6246 29.1473 18.0501 29.8844C18.4757 30.6214 18.2232 31.5639 17.4861 31.9895L12.1478 35.0716C11.4107 35.4971 10.4682 35.2446 10.0427 34.5075C9.61711 33.7704 9.86964 32.8279 10.6067 32.4024ZM10.7579 23.4179L12.0924 22.6474C12.8295 22.2218 13.772 22.4744 14.1975 23.2115C14.6231 23.9485 14.3705 24.891 13.6335 25.3166L12.2989 26.0871C11.5618 26.5126 10.6193 26.2601 10.1938 25.523C9.76825 24.7859 10.0208 23.8435 10.7579 23.4179Z" fill="black"/>
</g>
<defs>
<clipPath id="clip0_1_72">
<rect width="36.985" height="36.985" fill="white" transform="translate(0.796387 18.4925) rotate(-30)"/>
</clipPath>
</defs>
</svg>
