<svg width="77" height="77" viewBox="0 0 77 77" fill="none" xmlns="http://www.w3.org/2000/svg">
<circle cx="38.5" cy="38.5" r="38.5" fill="#0488DF"/>
<g clip-path="url(#clip0_88_611)">
<path opacity="0.3" fill-rule="evenodd" clip-rule="evenodd" d="M27.5 21.5H48.5C49.4665 21.5 50.25 22.2835 50.25 23.25V39C50.25 39.9665 49.4665 40.75 48.5 40.75H27.5C26.5335 40.75 25.75 39.9665 25.75 39V23.25C25.75 22.2835 26.5335 21.5 27.5 21.5ZM30.125 26.75C29.6418 26.75 29.25 27.1418 29.25 27.625C29.25 28.1082 29.6418 28.5 30.125 28.5H40.625C41.1082 28.5 41.5 28.1082 41.5 27.625C41.5 27.1418 41.1082 26.75 40.625 26.75H30.125ZM30.125 30.25C29.6418 30.25 29.25 30.6418 29.25 31.125C29.25 31.6082 29.6418 32 30.125 32H35.375C35.8582 32 36.25 31.6082 36.25 31.125C36.25 30.6418 35.8582 30.25 35.375 30.25H30.125Z" fill="white"/>
<path fill-rule="evenodd" clip-rule="evenodd" d="M23.6373 29.5019L38 39.875L52.3627 29.5019C52.7545 29.219 53.3014 29.3072 53.5843 29.6989C53.692 29.8481 53.75 30.0273 53.75 30.2112V47.75C53.75 49.683 52.183 51.25 50.25 51.25H25.75C23.817 51.25 22.25 49.683 22.25 47.75V30.2112C22.25 29.728 22.6418 29.3362 23.125 29.3362C23.3089 29.3362 23.4882 29.3942 23.6373 29.5019Z" fill="white"/>
</g>
<defs>
<clipPath id="clip0_88_611">
<rect width="42" height="42" fill="white" transform="translate(17 18)"/>
</clipPath>
</defs>
</svg>
