<svg width="63" height="63" viewBox="0 0 63 63" fill="none" xmlns="http://www.w3.org/2000/svg">
<rect width="63" height="63" rx="10" fill="#FCEBF5"/>
<g clip-path="url(#clip0_3_181)">
<g clip-path="url(#clip1_3_181)">
<path d="M42.6667 19.6667C43.5507 19.6667 44.3986 20.0178 45.0237 20.643C45.6488 21.2681 46 22.1159 46 23V43C46 43.884 45.6488 44.7319 45.0237 45.357C44.3986 45.9821 43.5507 46.3333 42.6667 46.3333H19.3333C18.4493 46.3333 17.6014 45.9821 16.9763 45.357C16.3512 44.7319 16 43.884 16 43V23C16 22.1159 16.3512 21.2681 16.9763 20.643C17.6014 20.0178 18.4493 19.6667 19.3333 19.6667H42.6667ZM42.6667 33H19.3333V43H42.6667V33ZM42.6667 23H19.3333V29.6667H42.6667V23ZM22.6667 24.6667C23.1087 24.6667 23.5326 24.8423 23.8452 25.1548C24.1577 25.4674 24.3333 25.8913 24.3333 26.3333C24.3333 26.7754 24.1577 27.1993 23.8452 27.5118C23.5326 27.8244 23.1087 28 22.6667 28C22.2246 28 21.8007 27.8244 21.4882 27.5118C21.1756 27.1993 21 26.7754 21 26.3333C21 25.8913 21.1756 25.4674 21.4882 25.1548C21.8007 24.8423 22.2246 24.6667 22.6667 24.6667ZM27.6667 24.6667C28.1087 24.6667 28.5326 24.8423 28.8452 25.1548C29.1577 25.4674 29.3333 25.8913 29.3333 26.3333C29.3333 26.7754 29.1577 27.1993 28.8452 27.5118C28.5326 27.8244 28.1087 28 27.6667 28C27.2246 28 26.8007 27.8244 26.4882 27.5118C26.1756 27.1993 26 26.7754 26 26.3333C26 25.8913 26.1756 25.4674 26.4882 25.1548C26.8007 24.8423 27.2246 24.6667 27.6667 24.6667ZM32.6667 24.6667C33.1087 24.6667 33.5326 24.8423 33.8452 25.1548C34.1577 25.4674 34.3333 25.8913 34.3333 26.3333C34.3333 26.7754 34.1577 27.1993 33.8452 27.5118C33.5326 27.8244 33.1087 28 32.6667 28C32.2246 28 31.8007 27.8244 31.4882 27.5118C31.1756 27.1993 31 26.7754 31 26.3333C31 25.8913 31.1756 25.4674 31.4882 25.1548C31.8007 24.8423 32.2246 24.6667 32.6667 24.6667Z" fill="black"/>
</g>
</g>
<defs>
<clipPath id="clip0_3_181">
<rect width="44" height="44" fill="white" transform="translate(9 5)"/>
</clipPath>
<clipPath id="clip1_3_181">
<rect width="40" height="40" fill="white" transform="translate(11 13)"/>
</clipPath>
</defs>
</svg>
