<svg width="38" height="38" viewBox="0 0 38 38" fill="none" xmlns="http://www.w3.org/2000/svg">
<path d="M26.791 13.0688C25.9392 13.0688 25.2487 12.3782 25.2487 11.5264C25.2487 10.6746 25.9392 9.9841 26.791 9.9841H28.3333C31.7405 9.9841 34.5026 12.7462 34.5026 16.1534V28.492C34.5026 31.8993 31.7405 34.6613 28.3333 34.6613H9.82538C6.41816 34.6613 3.65607 31.8993 3.65607 28.492V16.1427C3.65607 12.7355 6.41816 9.97339 9.82538 9.97339H11.3677C12.2195 9.97339 12.91 10.6639 12.91 11.5157C12.91 12.3675 12.2195 13.058 11.3677 13.058H9.82538C8.12177 13.058 6.74072 14.4391 6.74072 16.1427V28.492C6.74072 30.1956 8.12177 31.5767 9.82538 31.5767H28.3333C30.0369 31.5767 31.418 30.1956 31.418 28.492V16.1534C31.418 14.4498 30.0369 13.0688 28.3333 13.0688H26.791Z" fill="black"/>
<path fill-rule="evenodd" clip-rule="evenodd" d="M19.0793 3.81482C19.0793 3.81482 17.537 3.81482 17.537 5.35715L17.537 20.7804C17.537 20.7804 17.537 22.3228 19.0793 22.3228C19.0793 22.3228 20.6216 22.3228 20.6216 20.7804L20.6216 5.35715C20.6216 5.35715 20.6216 3.81482 19.0793 3.81482Z" fill="black"/>
<path d="M19.0793 4.45364L22.6157 7.99004C23.2181 8.59235 24.1946 8.59235 24.7969 7.99004C25.3992 7.38772 25.3992 6.41117 24.7969 5.80885L20.1699 1.18187C19.5676 0.579554 18.5911 0.579554 17.9888 1.18187L13.3618 5.80885C12.7595 6.41117 12.7595 7.38772 13.3618 7.99004C13.9641 8.59235 14.9406 8.59235 15.543 7.99004L19.0793 4.45364Z" fill="black"/>
</svg>
