<svg width="63" height="63" viewBox="0 0 63 63" fill="none" xmlns="http://www.w3.org/2000/svg">
<rect width="63" height="63" rx="10" fill="#FFFAEE"/>
<g clip-path="url(#clip0_3_190)">
<path d="M46.625 17.25C46.1952 16.972 45.7037 16.8038 45.1937 16.7602C44.6837 16.7166 44.1707 16.7989 43.7 17L28.275 23.075C27.9098 23.2236 27.5193 23.3 27.125 23.3H17.25C16.4212 23.3 15.6263 23.6293 15.0403 24.2153C14.4542 24.8014 14.125 25.5962 14.125 26.425V26.675H11V34.175H14.125V34.5C14.1446 35.3157 14.4824 36.0915 15.0664 36.6614C15.6503 37.2313 16.434 37.5502 17.25 37.55L21 45.5C21.2539 46.0354 21.6537 46.4883 22.1534 46.8066C22.6531 47.125 23.2325 47.296 23.825 47.3H25.4C26.2245 47.2934 27.0129 46.9613 27.5936 46.3759C28.1742 45.7906 28.5 44.9995 28.5 44.175V37.85L43.7 43.925C44.0739 44.0738 44.4726 44.1501 44.875 44.15C45.4993 44.1399 46.1072 43.9489 46.625 43.6C47.0362 43.3224 47.3754 42.9508 47.6145 42.5161C47.8536 42.0814 47.9857 41.596 48 41.1V19.825C47.9977 19.3163 47.8713 18.8158 47.6316 18.3671C47.392 17.9183 47.0465 17.5349 46.625 17.25ZM25.375 26.425V34.5H17.25V26.425H25.375ZM25.375 44.175H23.8L20.725 37.55H25.375V44.175ZM29.425 34.875C29.1282 34.7233 28.8187 34.5978 28.5 34.5V26.25C28.8156 26.1849 29.1251 26.0929 29.425 25.975L44.875 19.825V41.025L29.425 34.875ZM48.075 27.3V33.55C48.9038 33.55 49.6987 33.2208 50.2847 32.6347C50.8708 32.0487 51.2 31.2538 51.2 30.425C51.2 29.5962 50.8708 28.8014 50.2847 28.2153C49.6987 27.6293 48.9038 27.3 48.075 27.3Z" fill="black"/>
</g>
<defs>
<clipPath id="clip0_3_190">
<rect width="40" height="40" fill="white" transform="translate(11 12)"/>
</clipPath>
</defs>
</svg>
