<svg width="63" height="64" viewBox="0 0 63 64" fill="none" xmlns="http://www.w3.org/2000/svg">
<rect y="0.0525513" width="63" height="63" rx="10" fill="#FCF2FA"/>
<path d="M44.3333 15.3333H17.6667C15.8333 15.3333 14.3333 16.8333 14.3333 18.6667V48.6667L21 42H44.3333C46.1667 42 47.6667 40.5 47.6667 38.6667V18.6667C47.6667 16.8333 46.1667 15.3333 44.3333 15.3333ZM44.3333 38.6667H19.6167L17.6667 40.6167V18.6667H44.3333V38.6667ZM22.6667 27H26V30.3333H22.6667V27ZM36 27H39.3333V30.3333H36V27ZM29.3333 27H32.6667V30.3333H29.3333V27Z" fill="black"/>
<path d="M44.3333 15.3333H17.6667C15.8333 15.3333 14.3333 16.8333 14.3333 18.6667V48.6667L21 42H44.3333C46.1667 42 47.6667 40.5 47.6667 38.6667V18.6667C47.6667 16.8333 46.1667 15.3333 44.3333 15.3333ZM44.3333 38.6667H19.6167L17.6667 40.6167V18.6667H44.3333V38.6667ZM22.6667 27H26V30.3333H22.6667V27ZM36 27H39.3333V30.3333H36V27ZM29.3333 27H32.6667V30.3333H29.3333V27Z" fill="black"/>
</svg>
