<svg width="38" height="38" viewBox="0 0 38 38" fill="none" xmlns="http://www.w3.org/2000/svg">
<g clip-path="url(#clip0_1_79)">
<path fill-rule="evenodd" clip-rule="evenodd" d="M29.1045 9.46033C30.3822 9.46033 31.418 10.4961 31.418 11.7738V28.7394C31.418 30.0171 30.3822 31.0529 29.1045 31.0529C27.8268 31.0529 26.791 30.0171 26.791 28.7394V11.7738C26.791 10.4961 27.8268 9.46033 29.1045 9.46033ZM19.8505 17.172C21.1282 17.172 22.164 18.2078 22.164 19.4855V28.7394C22.164 30.0171 21.1282 31.0529 19.8505 31.0529C18.5728 31.0529 17.537 30.0171 17.537 28.7394V19.4855C17.537 18.2078 18.5728 17.172 19.8505 17.172ZM10.5965 23.3413C11.8742 23.3413 12.91 24.3771 12.91 25.6548V28.7394C12.91 30.0171 11.8742 31.0529 10.5965 31.0529C9.31884 31.0529 8.28305 30.0171 8.28305 28.7394V25.6548C8.28305 24.3771 9.31884 23.3413 10.5965 23.3413Z" fill="black"/>
</g>
<defs>
<clipPath id="clip0_1_79">
<rect width="37.0159" height="37.0159" fill="white" transform="translate(0.571411 0.20636)"/>
</clipPath>
</defs>
</svg>
