<svg width="40" height="40" viewBox="0 0 40 40" fill="none" xmlns="http://www.w3.org/2000/svg">
<g clip-path="url(#clip0_53_348)">
<path d="M19.9418 40C8.93575 39.9778 -0.0173305 30.972 2.51908e-05 19.9394C0.0173809 8.98599 9.04484 -0.0197657 19.9938 3.25813e-05C31.0941 0.0198309 40.0422 9.03053 40 20.1448C39.9604 31.0982 30.9428 40.0248 19.9418 40Z" fill="#0487DE"/>
<path d="M20.0508 13.9652C17.4574 13.9652 14.8664 13.9677 12.273 13.9652C10.9019 13.9627 10.0192 13.1708 10.0267 11.9656C10.0341 10.7653 10.9168 9.96349 12.2903 9.96101C17.45 9.95359 22.612 9.95359 27.7717 9.96101C29.0882 9.96101 29.9659 10.7727 29.9734 11.9458C29.9808 13.1733 29.1304 13.9603 27.7543 13.9627C25.1856 13.9702 22.6195 13.9627 20.0508 13.9627V13.9652Z" fill="white"/>
<path d="M20.0086 21.9811C17.4127 21.9811 14.8143 21.9811 12.2184 21.9811C10.9142 21.9811 10.0539 21.2312 10.0266 20.0854C9.99687 18.8579 10.8647 17.9991 12.2085 17.9967C17.4028 17.9843 22.5947 17.9868 27.789 17.9967C28.9196 17.9967 29.7576 18.6277 29.9436 19.5558C30.137 20.5185 29.6807 21.4168 28.813 21.8276C28.4832 21.9835 28.1435 21.9835 27.7989 21.9835C25.203 21.9835 22.6046 21.9835 20.0086 21.9835V21.9811Z" fill="white"/>
<path d="M19.969 30.0142C17.4004 30.0142 14.8342 30.0167 12.2656 30.0142C10.8994 30.0142 10.0465 29.2767 10.0267 28.0963C10.0044 26.8737 10.8622 26.0397 12.2234 26.0372C17.4326 26.0249 22.6443 26.0273 27.8535 26.0372C28.9246 26.0372 29.6982 26.6188 29.9263 27.4998C30.1618 28.4056 29.7725 29.3213 28.9667 29.7866C28.5824 30.0093 28.1684 30.0167 27.7469 30.0167C25.1534 30.0167 22.5625 30.0167 19.969 30.0167V30.0142Z" fill="white"/>
</g>
<defs>
<clipPath id="clip0_53_348">
<rect width="40" height="40" fill="white"/>
</clipPath>
</defs>
</svg>
