<svg width="93" height="93" viewBox="0 0 93 93" fill="none" xmlns="http://www.w3.org/2000/svg">
<path opacity="0.3" fill-rule="evenodd" clip-rule="evenodd" d="M46.5 85.25C27.2391 85.25 11.625 69.6359 11.625 50.375C11.625 31.1141 27.2391 15.5 46.5 15.5C65.7609 15.5 81.375 31.1141 81.375 50.375C81.375 69.6359 65.7609 85.25 46.5 85.25Z" fill="#0488DF"/>
<path fill-rule="evenodd" clip-rule="evenodd" d="M46.3567 29.0625H46.6841C47.6795 29.0625 48.5129 29.8168 48.612 30.8072L50.375 48.4375L62.9613 55.6297C63.565 55.9746 63.9375 56.6166 63.9375 57.3119V58.125C63.9375 58.9423 63.275 59.6049 62.4577 59.6049C62.3261 59.6049 62.1952 59.5873 62.0683 59.5527L44.1698 54.6713C43.2732 54.4268 42.6766 53.5801 42.7478 52.6535L44.4249 30.8514C44.5026 29.842 45.3443 29.0625 46.3567 29.0625Z" fill="#0488DF"/>
</svg>
