<svg width="84" height="84" viewBox="0 0 84 84" fill="none" xmlns="http://www.w3.org/2000/svg">
<path opacity="0.5" d="M65.1787 34.125H65.625C69.9742 34.125 73.5 37.6508 73.5 42C73.5 46.3492 69.9742 49.875 65.625 49.875L65.3992 49.875C64.7192 49.8777 64.1056 50.284 63.8377 50.9091C63.5449 51.573 63.68 52.3183 64.1474 52.7963L64.3039 52.9528C65.7826 54.4299 66.6135 56.4343 66.6135 58.5244C66.6135 60.6145 65.7826 62.6188 64.3059 64.0939C62.8288 65.5726 60.8245 66.4035 58.7344 66.4035C56.6443 66.4035 54.6399 65.5726 53.1638 64.0949L53.0269 63.9578C52.5283 63.47 51.783 63.3349 51.1191 63.6277C50.494 63.8956 50.0877 64.5092 50.085 65.1787V65.625C50.085 69.9742 46.5592 73.5 42.21 73.5C37.8608 73.5 34.335 69.9742 34.335 65.625C34.3193 64.7497 33.8764 64.1305 33.0651 63.8265C32.427 63.5449 31.6817 63.68 31.2037 64.1474L31.0472 64.3039C29.5701 65.7826 27.5657 66.6135 25.4756 66.6135C23.3855 66.6135 21.3812 65.7826 19.9061 64.3059C18.4274 62.8288 17.5965 60.8245 17.5965 58.7344C17.5965 56.6443 18.4274 54.6399 19.9051 53.1638L20.0422 53.0269C20.53 52.5283 20.6651 51.783 20.3723 51.1191C20.1044 50.494 19.4908 50.0877 18.8212 50.085H18.375C14.0258 50.085 10.5 46.5592 10.5 42.21C10.5 37.8608 14.0258 34.335 18.375 34.335C19.2503 34.3193 19.8695 33.8764 20.1735 33.0651C20.4551 32.427 20.32 31.6817 19.8526 31.2037L19.6961 31.0472C18.2174 29.5701 17.3865 27.5657 17.3865 25.4756C17.3865 23.3855 18.2174 21.3812 19.6941 19.9061C21.1712 18.4274 23.1755 17.5965 25.2656 17.5965C27.3557 17.5965 29.3601 18.4274 30.8362 19.9051L30.9731 20.0422C31.4717 20.53 32.217 20.6651 32.8551 20.3835L33.232 20.304C33.7764 20.0091 34.1225 19.4391 34.125 18.8212V18.375C34.125 14.0258 37.6508 10.5 42 10.5C46.3492 10.5 49.875 14.0258 49.875 18.375L49.875 18.6008C49.8777 19.2808 50.284 19.8944 50.9349 20.1735C51.573 20.4551 52.3183 20.32 52.7963 19.8526L52.9528 19.6961C54.4299 18.2174 56.4343 17.3865 58.5244 17.3865C60.6145 17.3865 62.6188 18.2174 64.0939 19.6941C65.5726 21.1712 66.4035 23.1755 66.4035 25.2656C66.4035 27.3557 65.5726 29.3601 64.0949 30.8362L63.9578 30.9731C63.47 31.4717 63.3349 32.217 63.6165 32.8551L63.696 33.232C63.9909 33.7764 64.5609 34.1225 65.1787 34.125Z" fill="#0488DF"/>
<path fill-rule="evenodd" clip-rule="evenodd" d="M42 52.5C47.799 52.5 52.5 47.799 52.5 42C52.5 36.201 47.799 31.5 42 31.5C36.201 31.5 31.5 36.201 31.5 42C31.5 47.799 36.201 52.5 42 52.5Z" fill="#0488DF"/>
</svg>
