<svg width="76" height="77" viewBox="0 0 76 77" fill="none" xmlns="http://www.w3.org/2000/svg">
<path d="M23.6142 20.9918L41.1667 38.7752L41.1667 64.1667C41.1667 65.9386 39.7489 67.375 38 67.375C36.2511 67.375 34.8333 65.9386 34.8333 64.1667L34.8333 41.4331L19.1358 25.5291L12.2029 32.5532C11.5846 33.1796 10.5821 33.1796 9.96374 32.5532C9.6668 32.2523 9.49999 31.8443 9.49999 31.4189L9.49999 14.4375C9.49999 13.5515 10.2089 12.8333 11.0833 12.8333L27.8442 12.8333C28.7186 12.8333 29.4275 13.5515 29.4275 14.4375C29.4275 14.863 29.2607 15.271 28.9637 15.5718L23.6142 20.9918Z" fill="#0488DF"/>
<path opacity="0.3" d="M53.0582 21.9938L46.7196 15.5718C46.4227 15.271 46.2558 14.8629 46.2558 14.4375C46.2558 13.5515 46.9647 12.8333 47.8392 12.8333L64.8251 12.8333C65.6995 12.8333 66.4084 13.5515 66.4084 14.4375L66.4084 31.6469C66.4084 32.0723 66.2416 32.4803 65.9446 32.7812C65.3263 33.4076 64.3238 33.4076 63.7055 32.7812L57.552 26.5468L47.9622 34.7681L43.8712 29.8697L53.0582 21.9938Z" fill="#0488DF"/>
</svg>
