<svg width="69" height="69" viewBox="0 0 69 69" fill="none" xmlns="http://www.w3.org/2000/svg">
<g clip-path="url(#clip0_26_344)">
<path opacity="0.3" d="M51.75 40.25C46.9865 40.25 43.125 36.3885 43.125 31.625C43.125 26.8615 46.9865 23 51.75 23C56.5135 23 60.375 26.8615 60.375 31.625C60.375 36.3885 56.5135 40.25 51.75 40.25ZM25.875 31.625C19.5237 31.625 14.375 26.4763 14.375 20.125C14.375 13.7737 19.5237 8.625 25.875 8.625C32.2263 8.625 37.375 13.7737 37.375 20.125C37.375 26.4763 32.2263 31.625 25.875 31.625Z" fill="#0488DF"/>
<path d="M50.6034 43.1268C60.3972 43.2338 68.3939 48.1854 68.9957 58.65C69.0199 59.0715 68.9957 60.375 67.4359 60.375H56.35C56.35 53.9036 54.2118 47.9315 50.6034 43.1268ZM0.00187359 58.0727C1.11624 44.3512 12.253 37.375 25.8271 37.375C39.5922 37.375 50.9015 43.9679 51.744 58.075C51.7776 58.637 51.744 60.375 49.5843 60.375C38.9307 60.375 23.0998 60.375 2.09157 60.375C1.37055 60.375 -0.0588275 58.8201 0.00187359 58.0727Z" fill="#0488DF"/>
</g>
<defs>
<clipPath id="clip0_26_344">
<rect width="69" height="69" fill="white"/>
</clipPath>
</defs>
</svg>
