<svg width="76" height="75" viewBox="0 0 76 75" fill="none" xmlns="http://www.w3.org/2000/svg">
<g clip-path="url(#clip0_26_338)">
<path opacity="0.3" fill-rule="evenodd" clip-rule="evenodd" d="M15.8333 6.25H60.1667C63.6645 6.25 66.5 9.04822 66.5 12.5V18.75C66.5 22.2018 63.6645 25 60.1667 25H15.8333C12.3355 25 9.5 22.2018 9.5 18.75V12.5C9.5 9.04822 12.3355 6.25 15.8333 6.25ZM34.8333 12.5C33.0844 12.5 31.6667 13.8991 31.6667 15.625C31.6667 17.3509 33.0844 18.75 34.8333 18.75H50.6667C52.4156 18.75 53.8333 17.3509 53.8333 15.625C53.8333 13.8991 52.4156 12.5 50.6667 12.5H34.8333ZM22.1667 18.75C23.9156 18.75 25.3333 17.3509 25.3333 15.625C25.3333 13.8991 23.9156 12.5 22.1667 12.5C20.4178 12.5 19 13.8991 19 15.625C19 17.3509 20.4178 18.75 22.1667 18.75Z" fill="#0488DF"/>
<path fill-rule="evenodd" clip-rule="evenodd" d="M15.8333 28.125H60.1667C63.6645 28.125 66.5 30.9232 66.5 34.375V40.625C66.5 44.0768 63.6645 46.875 60.1667 46.875H15.8333C12.3355 46.875 9.5 44.0768 9.5 40.625V34.375C9.5 30.9232 12.3355 28.125 15.8333 28.125ZM34.8333 34.375C33.0844 34.375 31.6667 35.7741 31.6667 37.5C31.6667 39.2259 33.0844 40.625 34.8333 40.625H50.6667C52.4156 40.625 53.8333 39.2259 53.8333 37.5C53.8333 35.7741 52.4156 34.375 50.6667 34.375H34.8333ZM22.1667 40.625C23.9156 40.625 25.3333 39.2259 25.3333 37.5C25.3333 35.7741 23.9156 34.375 22.1667 34.375C20.4178 34.375 19 35.7741 19 37.5C19 39.2259 20.4178 40.625 22.1667 40.625Z" fill="#0488DF"/>
<path fill-rule="evenodd" clip-rule="evenodd" d="M15.8333 50H60.1667C63.6645 50 66.5 52.7982 66.5 56.25V62.5C66.5 65.9518 63.6645 68.75 60.1667 68.75H15.8333C12.3355 68.75 9.5 65.9518 9.5 62.5V56.25C9.5 52.7982 12.3355 50 15.8333 50ZM34.8333 56.25C33.0844 56.25 31.6667 57.6491 31.6667 59.375C31.6667 61.1009 33.0844 62.5 34.8333 62.5H50.6667C52.4156 62.5 53.8333 61.1009 53.8333 59.375C53.8333 57.6491 52.4156 56.25 50.6667 56.25H34.8333ZM22.1667 62.5C23.9156 62.5 25.3333 61.1009 25.3333 59.375C25.3333 57.6491 23.9156 56.25 22.1667 56.25C20.4178 56.25 19 57.6491 19 59.375C19 61.1009 20.4178 62.5 22.1667 62.5Z" fill="#0488DF"/>
</g>
<defs>
<clipPath id="clip0_26_338">
<rect width="76" height="75" fill="white"/>
</clipPath>
</defs>
</svg>
