<svg width="85" height="85" viewBox="0 0 85 85" fill="none" xmlns="http://www.w3.org/2000/svg">
<g clip-path="url(#clip0_26_334)">
<path d="M54.0876 30.7605C52.7471 29.3362 52.815 27.0947 54.2394 25.7541C55.6637 24.4136 57.9051 24.4815 59.2457 25.9059L73.4124 40.9579C74.6959 42.3217 74.6959 44.4489 73.4124 45.8126L59.2457 60.8647C57.9051 62.2891 55.6637 62.357 54.2394 61.0164C52.815 59.6758 52.7471 57.4344 54.0876 56.01L65.9698 43.3853L54.0876 30.7605ZM30.9124 30.7605L19.0303 43.3853L30.9124 56.01C32.253 57.4344 32.185 59.6758 30.7607 61.0164C29.3363 62.357 27.0949 62.289 25.7543 60.8647L11.5876 45.8126C10.3041 44.4489 10.3041 42.3216 11.5876 40.9579L25.7543 25.9058C27.0949 24.4815 29.3363 24.4136 30.7607 25.7541C32.185 27.0947 32.253 29.3361 30.9124 30.7605Z" fill="#0488DF"/>
</g>
<defs>
<clipPath id="clip0_26_334">
<rect width="85" height="85" fill="white"/>
</clipPath>
</defs>
</svg>
